<?xml version="1.0" standalone="no"?>
<!DOCTYPE svg PUBLIC "-//W3C//DTD SVG 20010904//EN"
 "http://www.w3.org/TR/2001/REC-SVG-20010904/DTD/svg10.dtd">
<svg version="1.0" xmlns="http://www.w3.org/2000/svg"
 width="96.000000pt" height="96.000000pt" viewBox="0 0 96.000000 96.000000"
 preserveAspectRatio="xMidYMid meet">
<metadata>
Created by potrace 1.10, written by Peter Selinger 2001-2011
</metadata>
<g transform="translate(0.000000,96.000000) scale(0.100000,-0.100000)"
fill="#000000" stroke="none">
<path d="M509 960 c-1 -3 -4 -57 -8 -120 l-6 -115 -50 -8 c-93 -16 -197 -64
-259 -119 -87 -76 -148 -170 -176 -273 -13 -47 -10 -311 3 -280 5 11 15 34 22
50 8 17 16 37 20 45 19 47 87 139 131 175 75 63 234 131 287 123 21 -3 22 -9
25 -106 2 -80 6 -102 17 -102 7 0 17 5 20 10 6 9 98 86 180 150 38 30 113 92
172 143 24 20 51 37 59 37 20 0 18 13 -5 25 -23 13 -124 92 -215 170 -39 33
-91 76 -116 95 -75 59 -82 64 -90 85 -5 11 -10 18 -11 15z"/>
</g>
</svg>
