<?xml version="1.0" standalone="no"?>
<svg viewBox="0 0 200 200" xmlns="http://www.w3.org/2000/svg">
  <path fill="#FF0066" d="M42.5,-62.7C53.2,-50.6,58.8,-35.8,60.1,-21.9C61.4,-8,58.3,5,56.4,20.7C54.5,36.3,53.8,54.7,44.6,64.1C35.4,73.4,17.7,73.7,2.6,70.2C-12.6,66.7,-25.2,59.4,-30.7,48.8C-36.1,38.3,-34.4,24.4,-41.6,11.4C-48.7,-1.7,-64.7,-13.9,-67.4,-26.9C-70.1,-39.9,-59.5,-53.7,-46.1,-64.8C-32.6,-76,-16.3,-84.6,-0.2,-84.3C15.9,-84,31.7,-74.7,42.5,-62.7Z" transform="translate(100 100)" />
</svg>
