<?xml version="1.0" standalone="no"?>
<!DOCTYPE svg PUBLIC "-//W3C//DTD SVG 20010904//EN"
 "http://www.w3.org/TR/2001/REC-SVG-20010904/DTD/svg10.dtd">
<svg version="1.0" xmlns="http://www.w3.org/2000/svg"
 width="96.000000pt" height="96.000000pt" viewBox="0 0 96.000000 96.000000"
 preserveAspectRatio="xMidYMid meet">
<metadata>
Created by potrace 1.10, written by Peter Selinger 2001-2011
</metadata>
<g transform="translate(0.000000,96.000000) scale(0.100000,-0.100000)"
fill="#000000" stroke="none">
<path d="M60 803 c-61 -12 -60 -8 -60 -333 0 -289 1 -297 21 -316 20 -18 42
-19 449 -19 393 0 429 1 447 17 11 10 25 18 31 18 9 0 12 77 12 300 0 223 -3
300 -12 300 -6 0 -20 8 -31 18 -17 16 -54 17 -426 18 -223 1 -417 0 -431 -3z
m766 -64 c8 -13 -335 -359 -356 -359 -21 0 -363 347 -355 360 9 15 701 14 711
-1z m-654 -154 c56 -58 103 -110 103 -115 0 -12 -204 -220 -216 -220 -5 0 -9
96 -9 220 0 124 4 220 9 220 5 0 56 -47 113 -105z m718 -115 c0 -121 -4 -220
-9 -220 -13 0 -206 199 -209 217 -4 16 184 219 206 222 9 1 12 -49 12 -219z
m-524 -81 c44 -46 91 -72 118 -65 13 3 46 26 74 51 41 37 55 44 69 36 36 -19
205 -199 199 -210 -10 -15 -702 -16 -711 0 -7 11 195 219 212 219 5 0 22 -14
39 -31z"/>
</g>
</svg>
