<?xml version="1.0" standalone="no"?>
<!DOCTYPE svg PUBLIC "-//W3C//DTD SVG 20010904//EN"
 "http://www.w3.org/TR/2001/REC-SVG-20010904/DTD/svg10.dtd">
<svg version="1.0" xmlns="http://www.w3.org/2000/svg"
 width="64.000000pt" height="64.000000pt" viewBox="0 0 64.000000 64.000000"
 preserveAspectRatio="xMidYMid meet">
<metadata>
Created by potrace 1.10, written by Peter Selinger 2001-2011
</metadata>
<g transform="translate(0.000000,64.000000) scale(0.050000,-0.050000)"
fill="#000000" stroke="none">
<path d="M446 1244 c-125 -45 -252 -129 -297 -198 -33 -50 -32 -52 71 -156
l105 -106 62 71 c111 127 260 158 403 85 l79 -40 99 99 c115 115 111 130 -57
216 -135 68 -322 80 -465 29z"/>
<path d="M32 819 c-18 -58 -32 -139 -32 -179 0 -40 14 -121 32 -179 l31 -107
119 118 c83 82 118 132 118 168 0 36 -35 86 -118 168 l-119 118 -31 -107z"/>
<path d="M614 767 c-24 -23 -15 -238 10 -263 14 -14 84 -24 173 -24 149 0 149
0 112 -41 -36 -40 -34 -42 72 -150 l108 -110 36 46 c97 121 141 242 143 395
l2 150 -321 5 c-177 3 -328 0 -335 -8z"/>
<path d="M219 389 c-121 -122 -114 -156 57 -269 203 -134 441 -153 643 -50
l107 54 -108 107 -108 107 -81 -22 c-125 -34 -224 -6 -322 92 l-85 85 -103
-104z"/>
</g>
</svg>
