<?xml version="1.0" standalone="no"?>
<!DOCTYPE svg PUBLIC "-//W3C//DTD SVG 20010904//EN"
 "http://www.w3.org/TR/2001/REC-SVG-20010904/DTD/svg10.dtd">
<svg version="1.0" xmlns="http://www.w3.org/2000/svg"
 width="96.000000pt" height="96.000000pt" viewBox="0 0 96.000000 96.000000"
 preserveAspectRatio="xMidYMid meet">
<metadata>
Created by potrace 1.10, written by Peter Selinger 2001-2011
</metadata>
<g transform="translate(0.000000,96.000000) scale(0.100000,-0.100000)"
fill="#000000" stroke="none">
<path d="M272 953 c1 -5 -8 -30 -20 -57 -23 -52 -28 -81 -13 -90 5 -3 12 -18
16 -33 3 -15 13 -32 22 -38 21 -16 21 -94 -1 -128 -10 -14 -15 -31 -11 -37 11
-17 51 -11 71 11 25 28 27 147 4 175 -36 44 -45 73 -31 107 8 18 16 47 18 65
5 30 4 32 -26 32 -17 0 -30 -3 -29 -7z"/>
<path d="M440 942 c0 -10 -7 -27 -15 -38 -16 -21 -21 -119 -6 -128 5 -3 18
-24 30 -46 25 -48 28 -98 6 -106 -9 -4 -15 -19 -15 -35 0 -25 4 -29 28 -29 57
0 80 106 41 187 -11 23 -25 45 -30 49 -15 9 -10 71 6 88 8 8 15 28 15 45 0 28
-3 31 -30 31 -22 0 -30 -5 -30 -18z"/>
<path d="M620 945 c0 -7 -8 -18 -17 -24 -25 -13 -26 -140 -2 -167 9 -11 22
-35 29 -55 11 -30 10 -40 -4 -67 -9 -17 -16 -41 -16 -52 0 -18 5 -21 31 -18
28 3 34 9 51 56 19 50 19 55 3 95 -9 23 -23 50 -32 59 -21 23 -21 103 0 126
10 10 17 28 17 40 0 18 -6 22 -30 22 -20 0 -30 -5 -30 -15z"/>
<path d="M13 493 c-9 -3 -13 -29 -13 -77 0 -68 2 -74 25 -84 25 -12 25 -12 25
-147 l0 -135 -25 -6 c-16 -4 -25 -13 -25 -25 0 -18 16 -19 480 -19 473 0 480
0 480 20 0 14 -7 20 -22 20 -46 0 -49 8 -46 151 l3 134 33 10 32 9 0 72 0 72
-31 6 c-37 7 -898 7 -916 -1z m152 -83 c0 -23 -4 -25 -58 -28 -60 -3 -77 8
-63 44 4 12 19 14 63 12 54 -3 58 -5 58 -28z m213 -82 l-3 -113 -65 -3 c-93
-3 -94 -2 -91 114 1 54 5 102 7 106 3 4 39 8 80 8 l75 0 -3 -112z m517 82 l0
-25 -227 -3 -228 -2 0 30 0 30 228 -2 227 -3 0 -25z m-737 -88 c9 -7 12 -42
10 -143 l-3 -134 -30 0 -30 0 2 132 c0 72 4 137 8 142 7 13 25 14 43 3z m340
-139 l3 -143 -31 0 -30 0 0 138 c0 76 3 142 7 146 4 4 16 6 28 4 19 -3 20 -11
23 -145z m110 139 c9 -7 12 -42 10 -143 l-3 -134 -30 0 -30 0 0 130 c0 149 9
174 53 147z m107 0 c6 -4 11 -64 11 -139 1 -117 -1 -133 -16 -138 -43 -14 -47
-1 -46 138 1 125 6 147 31 147 6 0 15 -4 20 -8z m110 -3 c4 -5 8 -70 8 -142
l2 -132 -30 0 -30 0 -2 135 c-1 134 2 149 34 150 6 0 15 -5 18 -11z m-560
-165 c11 -12 15 -30 13 -63 -3 -44 -4 -46 -33 -46 -29 0 -30 2 -33 48 -4 67
19 94 53 61z m115 -4 c6 -12 10 -40 8 -63 -3 -39 -5 -42 -33 -42 -29 0 -30 2
-33 50 -3 38 1 52 14 62 24 18 31 16 44 -7z"/>
</g>
</svg>
