<?xml version="1.0" standalone="no"?>
<!DOCTYPE svg PUBLIC "-//W3C//DTD SVG 20010904//EN"
 "http://www.w3.org/TR/2001/REC-SVG-20010904/DTD/svg10.dtd">
<svg version="1.0" xmlns="http://www.w3.org/2000/svg"
 width="32.000000pt" height="32.000000pt" viewBox="0 0 32.000000 32.000000"
 preserveAspectRatio="xMidYMid meet">
<metadata>
Created by potrace 1.10, written by Peter Selinger 2001-2011
</metadata>
<g transform="translate(0.000000,32.000000) scale(0.100000,-0.100000)"
fill="#000000" stroke="none">
<path d="M108 300 c-32 -24 -40 -64 -23 -112 12 -35 11 -37 -9 -40 -15 -2 -28
-21 -47 -68 -15 -35 -25 -68 -23 -72 7 -10 301 -10 308 0 2 4 -8 37 -23 72
-19 47 -32 66 -47 68 -20 3 -21 5 -9 40 17 48 9 88 -23 112 -32 25 -72 25
-104 0z m94 -17 c11 -10 18 -30 18 -51 0 -40 -45 -125 -63 -119 -21 6 -57 81
-57 116 0 62 59 93 102 54z m-77 -163 c3 -5 -12 -18 -35 -30 -44 -23 -45 -22
-28 15 11 25 51 35 63 15z m135 -20 c7 -17 11 -32 9 -34 -20 -15 -83 -46 -93
-46 -7 0 -25 13 -40 29 -29 30 -23 48 13 36 14 -4 25 2 38 19 25 35 57 33 73
-4z m-150 -55 l23 -25 -58 0 c-61 0 -64 7 -13 35 12 7 23 13 24 14 0 1 11 -10
24 -24z m184 -10 c4 -12 -3 -15 -32 -15 l-37 1 25 14 c32 18 37 18 44 0z"/>
<path d="M134 245 c-4 -9 -2 -21 4 -27 16 -16 47 -5 47 17 0 26 -42 34 -51 10z"/>
</g>
</svg>
