<?xml version="1.0" encoding="UTF-8"?>
<svg xmlns="http://www.w3.org/2000/svg" xmlns:xlink="http://www.w3.org/1999/xlink" width="200px" height="126px" viewBox="0 0 200 126" version="1.1">
<g id="surface1">
<path style=" stroke:none;fill-rule:nonzero;fill:rgb(13.333333%,11.764706%,12.156863%);fill-opacity:1;" d="M 10.828125 11.210938 L 20.960938 11.210938 L 24.871094 21.679688 L 28.75 11.210938 L 38.878906 11.210938 L 38.878906 28.417969 L 32.566406 28.417969 L 32.566406 15.296875 L 27.703125 28.417969 L 21.992188 28.417969 L 17.136719 15.296875 L 17.136719 28.417969 L 10.828125 28.417969 "/>
<path style=" stroke:none;fill-rule:nonzero;fill:rgb(13.333333%,11.764706%,12.156863%);fill-opacity:1;" d="M 44.101562 28.417969 L 51.824219 28.417969 L 51.824219 11.210938 L 44.101562 11.210938 Z M 44.101562 28.417969 "/>
<path style=" stroke:none;fill-rule:nonzero;fill:rgb(13.333333%,11.764706%,12.156863%);fill-opacity:1;" d="M 57.351562 11.210938 L 65.058594 11.210938 L 65.058594 24.179688 L 77.085938 24.179688 L 77.085938 28.417969 L 57.351562 28.417969 "/>
<path style=" stroke:none;fill-rule:nonzero;fill:rgb(13.333333%,11.764706%,12.156863%);fill-opacity:1;" d="M 80.898438 28.417969 L 88.621094 28.417969 L 88.621094 11.210938 L 80.898438 11.210938 Z M 80.898438 28.417969 "/>
<path style=" stroke:none;fill-rule:nonzero;fill:rgb(13.333333%,11.764706%,12.156863%);fill-opacity:1;" d="M 92.394531 11.210938 L 115.820312 11.210938 L 115.820312 15.460938 L 107.960938 15.460938 L 107.960938 28.417969 L 100.253906 28.417969 L 100.253906 15.460938 L 92.394531 15.460938 "/>
<path style=" stroke:none;fill-rule:nonzero;fill:rgb(13.333333%,11.764706%,12.156863%);fill-opacity:1;" d="M 130.675781 21.855469 L 127.925781 15.671875 L 125.199219 21.855469 Z M 132.277344 25.578125 L 123.527344 25.578125 L 122.3125 28.417969 L 114.441406 28.417969 L 123.816406 11.210938 L 132.222656 11.210938 L 141.59375 28.417969 L 133.523438 28.417969 "/>
<path style=" stroke:none;fill-rule:nonzero;fill:rgb(13.333333%,11.764706%,12.156863%);fill-opacity:1;" d="M 151.882812 18.183594 L 155.132812 18.183594 C 155.484375 18.183594 156.164062 18.105469 157.175781 17.949219 C 157.683594 17.878906 158.101562 17.699219 158.425781 17.410156 C 158.746094 17.117188 158.910156 16.785156 158.910156 16.410156 C 158.910156 15.855469 158.65625 15.429688 158.144531 15.132812 C 157.632812 14.832031 156.675781 14.6875 155.269531 14.6875 L 151.882812 14.6875 Z M 144.144531 28.417969 L 144.144531 11.210938 L 156.988281 11.210938 C 159.371094 11.210938 161.1875 11.351562 162.449219 11.632812 C 163.707031 11.914062 164.722656 12.4375 165.492188 13.199219 C 166.265625 13.964844 166.652344 14.890625 166.652344 15.988281 C 166.652344 16.941406 166.355469 17.765625 165.765625 18.457031 C 165.175781 19.152344 164.363281 19.714844 163.332031 20.144531 C 162.671875 20.417969 161.769531 20.644531 160.625 20.824219 C 161.542969 21.035156 162.210938 21.246094 162.632812 21.457031 C 162.914062 21.597656 163.324219 21.902344 163.863281 22.363281 C 164.402344 22.824219 164.761719 23.183594 164.941406 23.433594 L 168.675781 28.417969 L 159.964844 28.417969 L 155.847656 23.160156 C 155.324219 22.480469 154.863281 22.035156 154.453125 21.832031 C 153.898438 21.566406 153.269531 21.433594 152.566406 21.433594 L 151.882812 21.433594 L 151.882812 28.417969 "/>
<path style=" stroke:none;fill-rule:nonzero;fill:rgb(13.333333%,11.764706%,12.156863%);fill-opacity:1;" d="M 167.128906 11.210938 L 175.6875 11.210938 L 180.710938 17.015625 L 185.746094 11.210938 L 194.257812 11.210938 L 184.5625 21.210938 L 184.5625 28.417969 L 176.839844 28.417969 L 176.839844 21.210938 "/>
<path style=" stroke:none;fill-rule:nonzero;fill:rgb(13.333333%,11.764706%,12.156863%);fill-opacity:1;" d="M 17.863281 104.964844 L 17.863281 113.625 L 19.59375 113.625 C 21.070312 113.625 22.121094 113.511719 22.746094 113.285156 C 23.371094 113.054688 23.859375 112.660156 24.210938 112.09375 C 24.566406 111.527344 24.742188 110.613281 24.742188 109.34375 C 24.742188 107.664062 24.347656 106.515625 23.558594 105.894531 C 22.765625 105.273438 21.457031 104.964844 19.625 104.964844 Z M 10.792969 101.378906 L 21.292969 101.378906 C 23.363281 101.378906 25.035156 101.570312 26.3125 101.960938 C 27.585938 102.351562 28.636719 102.910156 29.46875 103.636719 C 30.300781 104.363281 30.90625 105.210938 31.28125 106.175781 C 31.65625 107.140625 31.839844 108.164062 31.839844 109.246094 C 31.839844 110.9375 31.5625 112.253906 31.007812 113.1875 C 30.449219 114.121094 29.679688 114.902344 28.691406 115.53125 C 27.703125 116.160156 26.640625 116.582031 25.507812 116.789062 C 23.957031 117.078125 22.554688 117.222656 21.292969 117.222656 L 10.792969 117.222656 "/>
<path style=" stroke:none;fill-rule:nonzero;fill:rgb(13.333333%,11.764706%,12.156863%);fill-opacity:1;" d="M 35.835938 117.222656 L 42.917969 117.222656 L 42.917969 101.378906 L 35.835938 101.378906 Z M 35.835938 117.222656 "/>
<path style=" stroke:none;fill-rule:nonzero;fill:rgb(13.333333%,11.764706%,12.156863%);fill-opacity:1;" d="M 46.757812 111.980469 L 53.484375 111.6875 C 53.628906 112.445312 53.925781 113.023438 54.371094 113.417969 C 55.101562 114.058594 56.140625 114.378906 57.492188 114.378906 C 58.5 114.378906 59.277344 114.214844 59.824219 113.886719 C 60.371094 113.5625 60.644531 113.179688 60.644531 112.75 C 60.644531 112.335938 60.382812 111.96875 59.863281 111.644531 C 59.34375 111.320312 58.136719 111.015625 56.246094 110.726562 C 53.144531 110.246094 50.933594 109.601562 49.613281 108.804688 C 48.28125 108.003906 47.617188 106.984375 47.617188 105.742188 C 47.617188 104.929688 47.957031 104.160156 48.636719 103.4375 C 49.320312 102.710938 50.34375 102.140625 51.710938 101.726562 C 53.078125 101.3125 54.953125 101.105469 57.335938 101.105469 C 60.257812 101.105469 62.488281 101.484375 64.023438 102.238281 C 65.554688 102.988281 66.46875 104.1875 66.761719 105.828125 L 60.097656 106.101562 C 59.921875 105.386719 59.550781 104.867188 58.984375 104.542969 C 58.414062 104.21875 57.632812 104.058594 56.632812 104.058594 C 55.8125 104.058594 55.191406 104.179688 54.777344 104.417969 C 54.359375 104.660156 54.152344 104.957031 54.152344 105.300781 C 54.152344 105.554688 54.324219 105.78125 54.667969 105.980469 C 55 106.191406 55.792969 106.386719 57.039062 106.566406 C 60.128906 107.027344 62.34375 107.492188 63.679688 107.964844 C 65.015625 108.4375 65.988281 109.023438 66.597656 109.722656 C 67.203125 110.421875 67.507812 111.203125 67.507812 112.066406 C 67.507812 113.082031 67.101562 114.019531 66.292969 114.878906 C 65.480469 115.734375 64.347656 116.386719 62.890625 116.828125 C 61.433594 117.269531 59.597656 117.492188 57.382812 117.492188 C 53.492188 117.492188 50.796875 116.976562 49.300781 115.9375 C 47.800781 114.898438 46.957031 113.582031 46.757812 111.980469 "/>
<path style=" stroke:none;fill-rule:nonzero;fill:rgb(13.333333%,11.764706%,12.156863%);fill-opacity:1;" d="M 86.292969 110.738281 L 92.488281 112.035156 C 92.074219 113.238281 91.417969 114.242188 90.523438 115.050781 C 89.628906 115.859375 88.519531 116.464844 87.191406 116.878906 C 85.863281 117.289062 84.179688 117.492188 82.128906 117.492188 C 79.640625 117.492188 77.613281 117.242188 76.035156 116.742188 C 74.460938 116.242188 73.097656 115.363281 71.957031 114.101562 C 70.8125 112.839844 70.238281 111.230469 70.238281 109.261719 C 70.238281 106.640625 71.246094 104.625 73.257812 103.21875 C 75.269531 101.8125 78.121094 101.105469 81.800781 101.105469 C 84.683594 101.105469 86.949219 101.511719 88.597656 102.316406 C 90.242188 103.125 91.46875 104.363281 92.269531 106.035156 L 86.027344 106.996094 C 85.808594 106.515625 85.582031 106.160156 85.34375 105.9375 C 84.949219 105.5625 84.464844 105.273438 83.890625 105.074219 C 83.320312 104.871094 82.679688 104.769531 81.972656 104.769531 C 80.371094 104.769531 79.144531 105.21875 78.289062 106.109375 C 77.644531 106.773438 77.324219 107.8125 77.324219 109.230469 C 77.324219 110.988281 77.707031 112.191406 78.476562 112.839844 C 79.246094 113.492188 80.328125 113.820312 81.722656 113.820312 C 83.074219 113.820312 84.097656 113.554688 84.789062 113.027344 C 85.480469 112.503906 85.984375 111.738281 86.292969 110.738281 "/>
<path style=" stroke:none;fill-rule:nonzero;fill:rgb(13.333333%,11.764706%,12.156863%);fill-opacity:1;" d="M 102.097656 109.332031 C 102.097656 110.933594 102.527344 112.082031 103.386719 112.78125 C 104.246094 113.480469 105.414062 113.828125 106.890625 113.828125 C 108.40625 113.828125 109.582031 113.488281 110.414062 112.800781 C 111.246094 112.117188 111.664062 110.890625 111.664062 109.117188 C 111.664062 107.625 111.230469 106.535156 110.359375 105.847656 C 109.492188 105.15625 108.316406 104.816406 106.828125 104.816406 C 105.402344 104.816406 104.257812 105.164062 103.394531 105.863281 C 102.53125 106.5625 102.097656 107.71875 102.097656 109.332031 M 95.03125 109.3125 C 95.03125 106.722656 96.070312 104.710938 98.152344 103.269531 C 100.234375 101.828125 103.128906 101.105469 106.84375 101.105469 C 110.648438 101.105469 113.582031 101.816406 115.640625 103.230469 C 117.703125 104.648438 118.730469 106.628906 118.730469 109.179688 C 118.730469 111.035156 118.28125 112.550781 117.382812 113.738281 C 116.484375 114.921875 115.183594 115.84375 113.480469 116.503906 C 111.78125 117.164062 109.660156 117.492188 107.125 117.492188 C 104.542969 117.492188 102.410156 117.207031 100.71875 116.640625 C 99.027344 116.070312 97.65625 115.171875 96.609375 113.9375 C 95.558594 112.707031 95.03125 111.164062 95.03125 109.3125 "/>
<path style=" stroke:none;fill-rule:nonzero;fill:rgb(13.333333%,11.764706%,12.156863%);fill-opacity:1;" d="M 137.421875 101.378906 L 144.476562 101.378906 L 144.476562 110.816406 C 144.476562 111.753906 144.265625 112.636719 143.84375 113.46875 C 143.421875 114.300781 142.761719 115.027344 141.863281 115.652344 C 140.964844 116.273438 140.019531 116.710938 139.03125 116.964844 C 137.65625 117.316406 136.007812 117.492188 134.085938 117.492188 C 132.972656 117.492188 131.757812 117.441406 130.441406 117.332031 C 129.125 117.222656 128.027344 117.011719 127.140625 116.6875 C 126.257812 116.367188 125.449219 115.914062 124.714844 115.324219 C 123.980469 114.730469 123.480469 114.125 123.210938 113.496094 C 122.773438 112.488281 122.554688 111.597656 122.554688 110.816406 L 122.554688 101.378906 L 129.605469 101.378906 L 129.605469 111.042969 C 129.605469 111.90625 129.953125 112.582031 130.644531 113.066406 C 131.335938 113.554688 132.296875 113.796875 133.523438 113.796875 C 134.738281 113.796875 135.695312 113.558594 136.386719 113.078125 C 137.078125 112.597656 137.421875 111.921875 137.421875 111.042969 "/>
<path style=" stroke:none;fill-rule:nonzero;fill:rgb(13.333333%,11.764706%,12.156863%);fill-opacity:1;" d="M 149.203125 101.378906 L 155.804688 101.378906 L 164.414062 110.144531 L 164.414062 101.378906 L 171.078125 101.378906 L 171.078125 117.222656 L 164.414062 117.222656 L 155.851562 108.523438 L 155.851562 117.222656 L 149.203125 117.222656 "/>
<path style=" stroke:none;fill-rule:nonzero;fill:rgb(13.333333%,11.764706%,12.156863%);fill-opacity:1;" d="M 174.167969 101.378906 L 195.652344 101.378906 L 195.652344 105.289062 L 188.445312 105.289062 L 188.445312 117.222656 L 181.375 117.222656 L 181.375 105.289062 L 174.167969 105.289062 "/>
<path style=" stroke:none;fill-rule:nonzero;fill:rgb(13.333333%,11.764706%,12.156863%);fill-opacity:1;" d="M 10.6875 48.996094 L 10.6875 49.621094 L 56.8125 66.5 L 54.617188 61.351562 L 10.6875 45.277344 "/>
<path style=" stroke:none;fill-rule:nonzero;fill:rgb(13.333333%,11.764706%,12.156863%);fill-opacity:1;" d="M 75.625 78.882812 L 10.6875 55.121094 L 10.6875 59.464844 L 33.847656 67.941406 L 33.847656 67.085938 L 34.289062 68.101562 L 74.007812 82.636719 "/>
<path style=" stroke:none;fill-rule:nonzero;fill:rgb(13.333333%,11.764706%,12.156863%);fill-opacity:1;" d="M 98.128906 50.046875 L 100.171875 43.734375 L 102.214844 50.046875 L 108.824219 50.046875 L 104.929688 52.890625 L 103.476562 53.949219 L 104.929688 58.4375 L 105.519531 60.261719 L 104.929688 59.832031 L 100.171875 56.359375 L 94.820312 60.261719 L 96.863281 53.949219 L 91.515625 50.046875 Z M 72.636719 31.648438 L 61.265625 58.285156 L 81.554688 65.710938 L 81.765625 65.359375 L 81.765625 65.789062 L 104.929688 74.261719 L 104.929688 61.664062 L 108.371094 64.175781 L 105.238281 54.496094 L 113.4375 48.515625 L 104.929688 48.515625 L 104.929688 31.648438 "/>
<path style=" stroke:none;fill-rule:nonzero;fill:rgb(13.333333%,11.764706%,12.156863%);fill-opacity:1;" d="M 81.765625 81.132812 L 81.765625 85.476562 L 104.929688 93.949219 L 104.929688 89.605469 Z M 81.765625 81.132812 "/>
<path style=" stroke:none;fill-rule:nonzero;fill:rgb(13.333333%,11.764706%,12.156863%);fill-opacity:1;" d="M 79.296875 70.382812 L 59.234375 63.042969 L 57.632812 66.800781 L 77.679688 74.136719 Z M 79.296875 70.382812 "/>
<path style=" stroke:none;fill-rule:nonzero;fill:rgb(13.333333%,11.764706%,12.156863%);fill-opacity:1;" d="M 37.109375 74.632812 L 47.082031 97.722656 L 67.488281 97.722656 L 71.953125 87.386719 Z M 37.109375 74.632812 "/>
<path style=" stroke:none;fill-rule:nonzero;fill:rgb(13.333333%,11.764706%,12.156863%);fill-opacity:1;" d="M 81.765625 90.976562 L 81.765625 97.722656 L 100.203125 97.722656 "/>
<path style=" stroke:none;fill-rule:nonzero;fill:rgb(13.333333%,11.764706%,12.156863%);fill-opacity:1;" d="M 81.765625 71.289062 L 81.765625 75.632812 L 104.929688 84.105469 L 104.929688 79.761719 Z M 81.765625 71.289062 "/>
<path style=" stroke:none;fill-rule:nonzero;fill:rgb(13.333333%,11.764706%,12.156863%);fill-opacity:1;" d="M 10.6875 64.964844 L 10.6875 97.722656 L 33.847656 97.722656 L 33.847656 73.441406 Z M 10.6875 64.964844 "/>
<path style=" stroke:none;fill-rule:nonzero;fill:rgb(13.333333%,11.764706%,12.156863%);fill-opacity:1;" d="M 10.6875 31.648438 L 10.6875 39.777344 L 51.832031 54.835938 L 41.9375 31.648438 "/>
<path style=" stroke:none;fill-rule:nonzero;fill:rgb(13.333333%,11.764706%,12.156863%);fill-opacity:1;" d="M 141.195312 64.21875 L 115.589844 72.703125 L 115.589844 77 L 141.195312 68.515625 Z M 141.195312 64.21875 "/>
<path style=" stroke:none;fill-rule:nonzero;fill:rgb(13.333333%,11.764706%,12.156863%);fill-opacity:1;" d="M 169.257812 65.117188 C 169.257812 66.5 169.058594 67.847656 168.6875 69.148438 L 192.808594 61.15625 C 192.632812 59.789062 192.359375 58.445312 191.992188 57.128906 L 169.25 64.664062 C 169.257812 64.8125 169.257812 64.964844 169.257812 65.117188 "/>
<path style=" stroke:none;fill-rule:nonzero;fill:rgb(13.333333%,11.764706%,12.156863%);fill-opacity:1;" d="M 141.195312 73.957031 L 115.589844 82.441406 L 115.589844 86.738281 L 141.195312 78.257812 Z M 141.195312 73.957031 "/>
<path style=" stroke:none;fill-rule:nonzero;fill:rgb(13.333333%,11.764706%,12.156863%);fill-opacity:1;" d="M 141.195312 58.777344 L 141.195312 46.449219 C 142.257812 46.34375 143.34375 46.289062 144.445312 46.289062 C 151.335938 46.289062 157.570312 48.421875 162.066406 51.863281 L 184.679688 44.371094 C 177.445312 36.628906 166.175781 31.648438 153.511719 31.648438 L 115.589844 31.648438 L 115.589844 67.261719 "/>
<path style=" stroke:none;fill-rule:nonzero;fill:rgb(13.333333%,11.764706%,12.156863%);fill-opacity:1;" d="M 164.804688 75.875 C 160.320312 80.75 152.875 83.941406 144.445312 83.941406 C 143.34375 83.941406 142.257812 83.886719 141.195312 83.78125 L 141.195312 83.699219 L 115.589844 92.179688 L 115.589844 97.722656 L 153.511719 97.722656 C 174.59375 97.722656 191.8125 83.925781 192.96875 66.546875 "/>
<path style=" stroke:none;fill-rule:nonzero;fill:rgb(13.333333%,11.764706%,12.156863%);fill-opacity:1;" d="M 168.167969 59.582031 L 190.15625 52.296875 C 189.554688 51.054688 188.863281 49.847656 188.089844 48.683594 L 166.128906 55.960938 C 166.96875 57.097656 167.652344 58.3125 168.167969 59.582031 "/>
</g>
</svg>
