<svg id="svg" xmlns="http://www.w3.org/2000/svg" xmlns:xlink="http://www.w3.org/1999/xlink" width="400" height="373.33333333333337" viewBox="0, 0, 400,373.33333333333337"><g id="svgg"><path id="path0" d="M248.321 13.326 C 229.753 24.647,238.126 53.323,260.000 53.323 C 273.382 53.323,281.323 45.382,281.323 32.000 C 281.323 14.745,262.999 4.377,248.321 13.326 M172.113 101.000 C 165.242 120.569,146.793 139.372,127.739 146.223 C 119.783 149.084,119.783 149.582,127.739 152.443 C 146.793 159.295,165.242 178.097,172.113 197.667 C 173.079 200.417,174.228 202.667,174.667 202.667 C 175.105 202.667,176.254 200.417,177.220 197.667 C 184.091 178.097,202.540 159.295,221.594 152.443 C 225.117 151.176,228.000 149.777,228.000 149.333 C 228.000 148.890,225.117 147.490,221.594 146.223 C 202.540 139.372,184.091 120.569,177.220 101.000 C 176.254 98.250,175.105 96.000,174.667 96.000 C 174.228 96.000,173.079 98.250,172.113 101.000 M297.039 115.000 C 324.866 207.602,232.936 299.532,140.333 271.706 C 127.982 267.994,128.132 267.874,132.574 277.919 C 167.736 357.425,275.281 377.400,338.954 316.250 C 383.018 273.933,390.353 202.911,355.934 151.837 C 344.137 134.333,322.930 116.253,303.684 107.293 C 293.455 102.531,293.334 102.671,297.039 115.000 M24.321 290.659 C 11.166 298.680,11.166 319.986,24.321 328.007 C 38.999 336.957,57.323 326.588,57.323 309.333 C 57.323 292.079,38.999 281.710,24.321 290.659 " stroke="none" fill="#000000" fill-rule="evenodd"></path></g></svg>