<?xml version="1.0" standalone="no"?>
<!DOCTYPE svg PUBLIC "-//W3C//DTD SVG 20010904//EN"
 "http://www.w3.org/TR/2001/REC-SVG-20010904/DTD/svg10.dtd">
<svg version="1.0" xmlns="http://www.w3.org/2000/svg"
 width="32.000000pt" height="32.000000pt" viewBox="0 0 32.000000 32.000000"
 preserveAspectRatio="xMidYMid meet">
<metadata>
Created by potrace 1.10, written by Peter Selinger 2001-2011
</metadata>
<g transform="translate(0.000000,32.000000) scale(0.100000,-0.100000)"
fill="#000000" stroke="none">
<path d="M170 311 c0 -5 15 -14 34 -21 40 -13 72 -45 87 -88 10 -28 29 -45 29
-25 0 24 -47 95 -73 111 -41 25 -77 36 -77 23z"/>
<path d="M20 273 c-39 -50 -9 -126 81 -207 44 -40 98 -66 135 -66 19 0 64 41
64 58 0 20 -49 72 -69 72 -8 0 -23 -7 -33 -16 -16 -16 -20 -14 -59 25 -39 39
-41 43 -25 59 22 26 20 42 -11 74 -34 35 -56 35 -83 1z m70 -18 c22 -24 22
-26 6 -44 -16 -17 -16 -22 -2 -48 14 -28 76 -83 92 -83 4 0 16 8 26 17 18 16
20 15 46 -10 l26 -27 -21 -21 c-28 -29 -72 -20 -135 26 -48 35 -108 123 -108
159 0 19 26 56 40 56 3 0 17 -11 30 -25z"/>
<path d="M165 250 c3 -5 12 -10 19 -10 15 0 56 -42 56 -58 0 -6 5 -14 10 -17
23 -14 8 39 -19 66 -27 27 -80 42 -66 19z"/>
</g>
</svg>
