<svg id="svg" xmlns="http://www.w3.org/2000/svg" xmlns:xlink="http://www.w3.org/1999/xlink" width="400" height="400" viewBox="0, 0, 400,400"><g id="svgg"><path id="path0" d="M184.987 47.341 C 176.377 64.578,169.333 78.978,169.333 79.341 C 169.333 79.703,183.733 80.000,201.333 80.000 C 218.933 80.000,233.333 79.703,233.333 79.341 C 233.333 78.012,202.004 16.000,201.333 16.000 C 200.952 16.000,193.596 30.103,184.987 47.341 M72.239 69.435 C 72.625 70.479,77.879 86.183,83.915 104.333 C 89.950 122.483,95.295 137.333,95.792 137.333 C 96.954 137.333,141.333 92.926,141.333 91.763 C 141.333 91.282,126.483 85.950,108.333 79.915 C 90.183 73.879,74.479 68.625,73.435 68.239 C 72.202 67.783,71.783 68.202,72.239 69.435 M295.490 79.391 C 277.243 85.543,261.971 90.918,261.553 91.336 C 260.758 92.131,305.297 137.333,306.874 137.333 C 307.371 137.333,312.716 122.483,318.752 104.333 C 324.788 86.183,330.002 70.583,330.339 69.667 C 331.208 67.304,332.010 67.080,295.490 79.391 M178.000 114.453 C 82.937 142.860,102.329 282.627,201.333 282.627 C 296.947 282.627,320.232 148.566,230.235 116.226 C 217.439 111.628,190.513 110.714,178.000 114.453 M51.000 181.062 C 33.950 189.630,20.000 196.952,20.000 197.333 C 20.000 198.004,82.012 229.333,83.341 229.333 C 83.703 229.333,84.000 214.933,84.000 197.333 C 84.000 179.733,83.550 165.367,83.000 165.409 C 82.450 165.451,68.050 172.495,51.000 181.062 M318.667 197.333 C 318.667 214.933,318.963 229.333,319.326 229.333 C 320.654 229.333,382.667 198.004,382.667 197.333 C 382.667 196.662,320.654 165.333,319.326 165.333 C 318.963 165.333,318.667 179.733,318.667 197.333 M83.471 291.579 C 77.187 310.413,72.226 326.004,72.447 326.225 C 72.956 326.734,140.100 304.344,141.118 303.326 C 141.909 302.535,97.365 257.333,95.796 257.333 C 95.300 257.333,89.754 272.744,83.471 291.579 M283.382 279.952 C 270.958 292.392,261.133 302.910,261.548 303.326 C 262.566 304.344,329.711 326.734,330.220 326.225 C 330.922 325.523,307.811 257.333,306.871 257.333 C 306.376 257.333,295.805 267.512,283.382 279.952 M169.333 315.326 C 169.333 316.654,200.662 378.667,201.333 378.667 C 202.004 378.667,233.333 316.654,233.333 315.326 C 233.333 314.963,218.933 314.667,201.333 314.667 C 183.733 314.667,169.333 314.963,169.333 315.326 " stroke="none" fill="#000000" fill-rule="evenodd"></path></g></svg>